<?xml version="1.0" encoding="UTF-8" standalone="no"?>
<!-- Created with Inkscape (http://www.inkscape.org/) -->

<svg
   height="64.001"
   width="306.5"
   version="1.1"
   id="svg22"
   sodipodi:docname="logo.svg"
   inkscape:version="1.1.1 (3bf5ae0d25, 2021-09-20)"
   xmlns:inkscape="http://www.inkscape.org/namespaces/inkscape"
   xmlns:sodipodi="http://sodipodi.sourceforge.net/DTD/sodipodi-0.dtd"
   xmlns="http://www.w3.org/2000/svg"
   xmlns:svg="http://www.w3.org/2000/svg">
  <defs
     id="defs26" />
  <sodipodi:namedview
     id="namedview24"
     pagecolor="#ffffff"
     bordercolor="#666666"
     borderopacity="1.0"
     inkscape:pageshadow="2"
     inkscape:pageopacity="0.0"
     inkscape:pagecheckerboard="0"
     showgrid="false"
     inkscape:zoom="2.6998369"
     inkscape:cx="164.26918"
     inkscape:cy="35.7429"
     inkscape:window-width="1920"
     inkscape:window-height="1003"
     inkscape:window-x="0"
     inkscape:window-y="0"
     inkscape:window-maximized="1"
     inkscape:current-layer="g20" />
  <g
     transform="translate(-289.60744,-317.50471)"
     id="g20">
    <path
       d="m 352.64,357.25 c -4.274,17.143 -21.637,27.576 -38.782,23.301 -17.138,-4.274 -27.571,-21.638 -23.295,-38.78 4.272,-17.145 21.635,-27.579 38.775,-23.305 17.144,4.274 27.576,21.64 23.302,38.784 z"
       fill="#f7931a"
       id="path2" />
    <path
       d="m 335.71,344.95 c 0.637,-4.258 -2.605,-6.547 -7.038,-8.074 l 1.438,-5.768 -3.511,-0.875 -1.4,5.616 c -0.923,-0.23 -1.871,-0.447 -2.813,-0.662 l 1.41,-5.653 -3.509,-0.875 -1.439,5.766 c -0.764,-0.174 -1.514,-0.346 -2.242,-0.527 l 0.004,-0.018 -4.842,-1.209 -0.934,3.75 c 0,0 2.605,0.597 2.55,0.634 1.422,0.355 1.679,1.296 1.636,2.042 l -1.638,6.571 c 0.098,0.025 0.225,0.061 0.365,0.117 -0.117,-0.029 -0.242,-0.061 -0.371,-0.092 l -2.296,9.205 c -0.174,0.432 -0.615,1.08 -1.609,0.834 0.035,0.051 -2.552,-0.637 -2.552,-0.637 l -1.743,4.019 4.569,1.139 c 0.85,0.213 1.683,0.436 2.503,0.646 l -1.453,5.834 3.507,0.875 1.439,-5.772 c 0.958,0.26 1.888,0.5 2.798,0.726 l -1.434,5.745 3.511,0.875 1.453,-5.823 c 5.987,1.133 10.489,0.676 12.384,-4.739 1.527,-4.36 -0.076,-6.875 -3.226,-8.515 2.294,-0.529 4.022,-2.038 4.483,-5.155 z m -8.022,11.249 c -1.085,4.36 -8.426,2.003 -10.806,1.412 l 1.928,-7.729 c 2.38,0.594 10.012,1.77 8.878,6.317 z m 1.086,-11.312 c -0.99,3.966 -7.1,1.951 -9.082,1.457 l 1.748,-7.01 c 1.982,0.494 8.365,1.416 7.334,5.553 z"
       fill="#ffffff"
       id="path4" />
    <path
       fill="#4d4d4d"
       d="m 383.38,336.87 c 2.595,0 4.837,0.465 6.721,1.378 1.893,0.922 3.455,2.164 4.708,3.726 1.236,1.57 2.156,3.405 2.75,5.508 0.59,2.109 0.886,4.376 0.886,6.803 0,3.728 -0.683,7.25 -2.062,10.57 -1.379,3.325 -3.25,6.209 -5.63,8.669 -2.378,2.457 -5.186,4.394 -8.424,5.825 -3.233,1.432 -6.748,2.148 -10.522,2.148 -0.488,0 -1.346,-0.014 -2.558,-0.039 -1.212,-0.025 -2.605,-0.15 -4.165,-0.361 -1.57,-0.219 -3.23,-0.543 -4.983,-0.977 -1.752,-0.426 -3.416,-1.023 -4.983,-1.781 l 14.012,-58.876 12.55,-1.945 -5.017,20.893 c 1.074,-0.484 2.156,-0.859 3.236,-1.132 1.081,-0.269 2.241,-0.409 3.481,-0.409 z m -10.527,34.671 c 1.89,0 3.671,-0.465 5.344,-1.378 1.678,-0.914 3.126,-2.148 4.339,-3.685 1.213,-1.544 2.173,-3.283 2.873,-5.226 0.7,-1.943 1.054,-3.97 1.054,-6.079 0,-2.591 -0.433,-4.612 -1.296,-6.073 -0.863,-1.455 -2.46,-2.187 -4.779,-2.187 -0.76,0 -1.739,0.145 -2.953,0.404 -1.218,0.275 -2.308,0.846 -3.285,1.705 l -5.342,22.188 c 0.322,0.057 0.607,0.111 0.85,0.162 0.238,0.055 0.501,0.094 0.763,0.121 0.277,0.031 0.594,0.047 0.977,0.047 0.383,0 0.862,10e-4 1.455,10e-4 z"
       id="path6" />
    <path
       fill="#4d4d4d"
       d="m 411.46,380.37 h -11.987 l 10.123,-42.597 h 12.069 z m 5.833,-47.787 c -1.673,0 -3.19,-0.498 -4.536,-1.496 -1.357,-0.992 -2.029,-2.519 -2.029,-4.577 0,-1.132 0.23,-2.194 0.686,-3.196 0.463,-1 1.068,-1.861 1.826,-2.593 0.757,-0.726 1.634,-1.306 2.63,-1.743 1.002,-0.43 2.068,-0.645 3.204,-0.645 1.672,0 3.181,0.498 4.532,1.496 1.346,1.003 2.023,2.53 2.023,4.577 0,1.136 -0.229,2.202 -0.689,3.202 -0.457,1 -1.062,1.861 -1.82,2.593 -0.751,0.727 -1.636,1.305 -2.63,1.738 -1.003,0.437 -2.065,0.644 -3.197,0.644 z"
       id="path8" />
    <path
       fill="#4d4d4d"
       d="m 432.17,327.16 12.555,-1.945 -3.083,12.556 h 13.446 l -2.428,9.878 h -13.365 l -3.56,14.9 c -0.328,1.242 -0.514,2.402 -0.566,3.48 -0.059,1.083 0.078,2.013 0.402,2.796 0.322,0.785 0.901,1.39 1.741,1.818 0.836,0.435 2.033,0.654 3.603,0.654 1.293,0 2.553,-0.123 3.771,-0.367 1.211,-0.24 2.438,-0.574 3.68,-1.011 l 0.894,9.236 c -1.62,0.594 -3.374,1.105 -5.264,1.535 -1.893,0.436 -4.134,0.646 -6.724,0.646 -3.724,0 -6.611,-0.553 -8.668,-1.654 -2.054,-1.109 -3.506,-2.624 -4.375,-4.542 -0.857,-1.911 -1.24,-4.114 -1.133,-6.596 0.111,-2.488 0.486,-5.103 1.133,-7.857 z"
       id="path10" />
    <path
       fill="#4d4d4d"
       d="m 454.56,363.36 c 0,-3.669 0.594,-7.129 1.781,-10.368 1.185,-3.242 2.892,-6.077 5.107,-8.51 2.207,-2.421 4.896,-4.339 8.061,-5.747 3.15,-1.4 6.677,-2.106 10.564,-2.106 2.433,0 4.606,0.23 6.518,0.691 1.92,0.465 3.657,1.066 5.228,1.82 l -4.134,9.4 c -1.08,-0.438 -2.201,-0.824 -3.36,-1.174 -1.16,-0.357 -2.576,-0.529 -4.251,-0.529 -4.001,0 -7.164,1.379 -9.518,4.128 -2.345,2.751 -3.526,6.454 -3.526,11.099 0,2.753 0.594,4.979 1.786,6.682 1.186,1.703 3.377,2.55 6.558,2.55 1.57,0 3.085,-0.164 4.536,-0.484 1.462,-0.324 2.753,-0.732 3.89,-1.214 l 0.895,9.636 c -1.516,0.588 -3.188,1.119 -5.022,1.584 -1.838,0.449 -4.026,0.682 -6.563,0.682 -3.349,0 -6.184,-0.49 -8.503,-1.455 -2.32,-0.98 -4.237,-2.281 -5.747,-3.929 -1.518,-1.652 -2.608,-3.581 -3.282,-5.795 -0.674,-2.212 -1.018,-4.536 -1.018,-6.961 z"
       id="path12" />
    <path
       style="fill:#4d4d4d;stroke-width:0.185196"
       d="M 76.516719,63.62194 C 72.647511,63.130681 68.946211,62.221598 66.611628,61.189136 65.851419,60.852934 65.645619,60.677175 65.716203,60.424414 65.76661,60.243908 68.907054,47.053769 72.694967,31.112991 76.48288,15.172213 79.5998,2.1099312 79.621456,2.0856979 79.695658,2.002664 91.793952,0.15260769 91.85317,0.21523917 91.8857,0.24964464 90.80094,4.9013419 89.442591,10.552344 c -1.358349,5.651002 -2.441796,10.302481 -2.407658,10.336618 0.03414,0.03413 0.759592,-0.18413 1.612123,-0.485035 5.068436,-1.788936 10.406499,-1.013396 14.369864,2.087719 6.42798,5.029554 7.64213,17.101855 2.69654,26.811838 -3.71238,7.288761 -10.183103,12.311942 -18.114169,14.061928 -2.209193,0.487455 -8.175963,0.625569 -11.082572,0.256528 z M 86.994432,53.484267 c 4.467955,-1.685519 7.958805,-5.90442 9.393069,-11.352092 0.733665,-2.786637 0.699032,-6.479271 -0.08547,-9.112749 -0.866282,-2.907997 -3.374745,-4.122008 -7.250235,-3.508869 -1.821728,0.288216 -3.779847,1.068587 -4.357943,1.736775 -0.237488,0.274502 -5.526839,21.725943 -5.52349,22.401017 0.0016,0.328609 0.740013,0.396581 3.797614,0.349599 2.463265,-0.03785 2.919374,-0.09604 4.026455,-0.513681 z"
       id="path25257"
       transform="translate(289.60744,317.50471)" />
    <path
       style="fill:#4d4d4d;stroke-width:0.185196"
       d="m 110.09924,62.547779 c 0,-0.128585 2.23784,-9.649994 4.97296,-21.158686 l 4.97296,-20.924894 5.96693,-0.04888 c 5.62851,-0.04611 5.96112,-0.03035 5.86449,0.277795 -0.0563,0.179672 -2.31603,9.577235 -5.02153,20.883474 -2.70551,11.306239 -4.96282,20.70264 -5.01625,20.880891 -0.0898,0.299728 -0.53481,0.324094 -5.91835,0.324094 -4.564,0 -5.82121,-0.05049 -5.82121,-0.233792 z"
       id="path25296"
       transform="translate(289.60744,317.50471)" />
    <path
       style="fill:#4d4d4d;stroke-width:0.185196"
       d="m 125.97908,14.799844 c -0.88228,-0.207936 -2.33245,-0.939788 -3.03711,-1.532725 -0.89191,-0.750492 -1.553,-2.169715 -1.67176,-3.588907 -0.3305,-3.9497466 2.58157,-7.7208447 6.63307,-8.589735 2.92698,-0.62772581 6.18368,0.7148131 7.44383,3.0686431 0.34247,0.6397001 0.40183,1.0515333 0.40183,2.7877439 0,1.9223182 -0.0339,2.1064807 -0.6016,3.266824 -1.67292,3.419381 -5.66043,5.414889 -9.16826,4.588156 z"
       id="path25335"
       transform="translate(289.60744,317.50471)" />
    <path
       style="fill:#4d4d4d;stroke-width:0.185196"
       d="m 143.52098,63.451871 c -5.43081,-0.88888 -8.5733,-3.670566 -9.63308,-8.527073 -0.40671,-1.863764 -0.28433,-5.919119 0.26882,-8.907749 0.30271,-1.635575 7.69979,-33.199624 8.3537,-35.646052 l 0.17325,-0.6481873 6.07025,-0.9348003 c 3.33864,-0.5141402 6.09238,-0.885264 6.11944,-0.8247197 0.0271,0.060544 -0.61882,2.8368143 -1.43528,6.1694893 -0.81645,3.332675 -1.48445,6.099777 -1.48445,6.149115 0,0.04934 3.00018,0.08971 6.66706,0.08971 3.66689,0 6.66771,0.0625 6.66849,0.138897 7.4e-4,0.07639 -0.51707,2.243192 -1.15077,4.815106 l -1.15218,4.676209 h -6.68357 -6.68357 l -2.00226,8.380136 c -2.18243,9.134174 -2.40926,10.617536 -1.89441,12.388557 0.39376,1.354492 0.83782,1.881116 2.11502,2.508298 1.0158,0.498817 1.16961,0.520061 3.65319,0.50457 2.53445,-0.01582 3.85895,-0.209946 6.10445,-0.894743 0.58006,-0.176896 0.96041,-0.213167 1.03137,-0.09835 0.0618,0.100042 0.25897,1.784806 0.4381,3.743919 0.17912,1.959115 0.37001,3.900188 0.42419,4.313494 l 0.0985,0.751468 -1.98793,0.610387 c -3.6004,1.105494 -5.03927,1.331784 -8.97924,1.412163 -2.43973,0.04977 -4.094,-0.0053 -5.09911,-0.169838 z"
       id="path25374"
       transform="translate(289.60744,317.50471)" />
    <path
       style="fill:#4d4d4d;stroke-width:0.185196"
       d="m 179.95092,63.705858 c -4.57522,-0.640864 -8.63673,-2.749695 -11.11029,-5.768726 -2.50957,-3.062981 -3.73697,-7.099179 -3.73623,-12.286226 0.002,-11.963798 6.66641,-21.753874 17.14755,-25.188866 4.67409,-1.531845 11.08479,-1.602396 16.05327,-0.176669 1.80374,0.51759 3.65143,1.281839 3.65143,1.510318 0,0.08145 -0.88223,2.159703 -1.96052,4.618333 l -1.96051,4.470237 -1.78971,-0.619129 c -2.377,-0.822292 -4.11641,-1.072641 -6.61395,-0.951928 -3.61067,0.174514 -6.08604,1.286403 -8.4144,3.779588 -2.7246,2.917478 -4.10326,7.331219 -3.83582,12.280322 0.24023,4.445587 1.82113,7.065412 4.83576,8.013697 1.09798,0.345382 1.72012,0.410788 3.81226,0.400783 2.66328,-0.01274 4.54803,-0.315502 6.8608,-1.102125 1.15965,-0.394422 1.2877,-0.406862 1.28644,-0.124964 -7.4e-4,0.172185 0.17664,2.256626 0.39422,4.632091 0.22643,2.472028 0.32603,4.384489 0.23289,4.4721 -0.27818,0.261685 -4.15697,1.441637 -5.81121,1.767809 -1.82452,0.359746 -7.25349,0.523872 -9.04198,0.273355 z"
       id="path25413"
       transform="translate(289.60744,317.50471)" />
    <path
       style="fill:#4d4d4d;stroke-width:0.185196"
       d="m 205.84577,62.681606 c -2.9707,-0.829041 -5.25197,-3.430159 -6.24684,-7.122694 -0.45557,-1.690891 -0.45557,-6.272552 0,-7.963444 1.30952,-4.860378 4.80863,-7.685438 9.11033,-7.355368 2.39304,0.183618 4.35256,1.210998 5.65554,2.965213 l 0.64819,0.87266 0.0489,-5.926902 0.0489,-5.926902 h 1.6642 1.6642 v 15.093505 15.093504 h -1.66676 -1.66677 l -0.01,-1.713066 c -0.009,-1.653252 -0.0203,-1.696901 -0.31301,-1.250076 -0.74685,1.140101 -2.40514,2.547504 -3.4868,2.959283 -1.4359,0.546633 -4.01018,0.676183 -5.4503,0.274287 z m 5.69632,-3.156261 c 2.4491,-1.198234 3.75299,-4.499018 3.50551,-8.874137 -0.24331,-4.301165 -2.05767,-6.988754 -5.0771,-7.520617 -2.10103,-0.370088 -4.22128,0.357228 -5.4075,1.854954 -2.53171,3.196539 -2.49108,10.263184 0.0766,13.31464 1.53927,1.829326 4.56865,2.367023 6.90253,1.22516 z"
       id="path25452"
       transform="translate(289.60744,317.50471)" />
    <path
       style="fill:#4d4d4d;stroke-width:0.185196"
       d="m 519.08573,380.22848 c -2.12593,-0.61443 -3.42706,-1.64931 -4.29804,-3.41851 -0.57255,-1.16302 -0.60966,-1.35725 -0.60966,-3.19076 0,-1.82958 0.038,-2.02946 0.60368,-3.1786 1.00061,-2.03253 2.63321,-3.18443 5.3532,-3.777 0.73404,-0.15992 2.84119,-0.32483 5.016,-0.39257 l 3.75023,-0.1168 -0.002,-0.85113 c -0.002,-1.01585 -0.65208,-2.49194 -1.41004,-3.20244 -0.29299,-0.27465 -0.9494,-0.69134 -1.45869,-0.92599 -0.83844,-0.38628 -1.18864,-0.42609 -3.70393,-0.42108 -2.82861,0.006 -3.61721,0.16783 -6.25038,1.2855 -0.29316,0.12444 -0.32409,-0.004 -0.32409,-1.3485 v -1.48607 l 0.78708,-0.28173 c 2.02628,-0.72528 4.71973,-1.23048 6.56024,-1.23048 1.57105,0 3.8007,0.47387 4.93558,1.04896 1.26968,0.64339 2.62702,1.96728 3.1731,3.0949 1.03693,2.14117 1.08526,2.58156 1.16608,10.62555 l 0.0749,7.45416 h -1.77401 -1.77401 v -1.67371 -1.6737 l -0.78708,0.96265 c -0.96297,1.17776 -2.26647,2.09715 -3.53598,2.494 -1.27673,0.39911 -4.41322,0.51524 -5.49235,0.20335 z m 6.00263,-3.1579 c 2.35935,-1.09526 3.81278,-3.6965 3.81278,-6.82381 v -1.25747 l -3.19464,0.003 c -3.49878,0.003 -5.21358,0.25792 -6.48417,0.96196 -2.16836,1.2015 -2.29615,5.15649 -0.21784,6.74169 1.42329,1.0856 4.18565,1.2556 6.08387,0.37441 z"
       id="path25491" />
    <path
       style="fill:#4d4d4d;stroke-width:0.185196"
       d="m 254.36722,62.84679 c -1.60729,-0.241398 -2.85238,-0.501606 -4.02802,-0.841812 l -1.34267,-0.388542 v -1.736151 -1.736151 l 0.69448,0.350961 c 1.2513,0.632348 3.53674,1.305774 5.16832,1.522898 2.87599,0.382721 5.30962,-0.117572 6.47158,-1.33039 0.45137,-0.471126 0.53407,-0.723543 0.58722,-1.792225 0.11548,-2.322 -0.54584,-2.81023 -5.47709,-4.04352 -4.69537,-1.174299 -6.3337,-2.206739 -6.9857,-4.402231 -0.76757,-2.584686 0.12159,-5.332202 2.18506,-6.751907 1.59352,-1.096375 2.86767,-1.39605 5.96776,-1.403598 2.69145,-0.0066 3.77546,0.132805 5.86891,0.754492 l 0.89075,0.264527 v 1.586808 c 0,1.442166 -0.0295,1.573796 -0.32409,1.444052 -3.98376,-1.754764 -9.07869,-1.752711 -10.78169,0.0043 -0.5618,0.579627 -0.64554,0.794262 -0.71101,1.822419 -0.0675,1.060264 -0.0276,1.220809 0.44241,1.779381 0.68089,0.80919 1.66898,1.211991 4.83324,1.970303 3.29351,0.789285 4.81445,1.394281 5.89391,2.344458 1.24235,1.093556 1.62343,1.956922 1.72189,3.901021 0.0777,1.533425 0.0491,1.69312 -0.50395,2.816471 -0.97282,1.976091 -2.77993,3.196074 -5.50711,3.717871 -1.26922,0.242838 -3.91348,0.319345 -5.0642,0.146518 z"
       id="path25567"
       transform="translate(289.60744,317.50471)" />
    <path
       style="fill:#4d4d4d;stroke-width:0.185196"
       d="M 271.40529,47.317674 V 32.224169 h 1.66676 1.66677 v 5.970012 5.970013 l 1.08794,-1.205423 c 1.81562,-2.011688 4.0486,-2.913682 6.70834,-2.709779 3.56066,0.272969 5.71381,2.154896 6.55704,5.73108 0.21555,0.914171 0.27229,2.731672 0.27446,8.791756 l 0.003,7.63935 h -1.6557 -1.65569 l -0.0632,-7.731948 c -0.0688,-8.413448 -0.086,-8.559143 -1.17705,-9.989597 -0.82813,-1.08573 -1.7686,-1.445202 -3.78216,-1.445629 -1.44405,-3.06e-4 -1.92532,0.07592 -2.68535,0.425319 -1.75528,0.806937 -2.96708,2.38959 -3.4031,4.444551 -0.13211,0.622668 -0.20823,3.415067 -0.20823,7.63935 v 6.657954 h -1.66677 -1.66676 z"
       id="path25606"
       transform="translate(289.60744,317.50471)" />
  </g>
</svg>
